<svg fill="none" xmlns="http://www.w3.org/2000/svg" viewBox="-14.88 -10 530.02 531">
<circle cx="250" cy="250" r="250" fill="#191923"/>
<circle cx="250" cy="250" r="210" stroke="#4C0064" stroke-width="50"/>
<path d="M459 251.5C459 366.208 367.11 459 254 459C140.89 459 49 366.208 49 251.5C49 136.792 140.89 44 254 44C367.11 44 459 136.792 459 251.5Z" stroke="#7E007A" stroke-width="20"/>
<path d="M352.631 256C352.631 312.609 306.74 358.5 250.131 358.5C193.522 358.5 147.631 312.609 147.631 256C147.631 199.391 193.522 153.5 250.131 153.5C306.74 153.5 352.631 199.391 352.631 256Z" stroke="#7E007A" stroke-width="65"/>
<path d="M353 255.5C353 312.109 307.109 358 250.5 358C193.891 358 148 312.109 148 255.5C148 198.891 193.891 153 250.5 153C307.109 153 353 198.891 353 255.5Z" stroke="#A00079" stroke-width="48"/>
<path d="M342 256.5C342 308.043 300.011 350 248 350C195.989 350 154 308.043 154 256.5C154 204.957 195.989 163 248 163C300.011 163 342 204.957 342 256.5Z" stroke="#E04674" stroke-width="48"/>
<path opacity="0.8" d="M224.755 331.463C235.685 334.795 247.208 335.788 258.556 334.377C269.905 332.966 280.819 329.182 290.571 323.279C300.323 317.375 308.689 309.487 315.112 300.139C321.535 290.792 325.866 280.2 327.819 269.069C329.771 257.938 329.299 246.525 326.434 235.588C323.569 224.652 318.377 214.444 311.204 205.645C304.031 196.846 295.042 189.658 284.835 184.559C274.628 179.46 263.438 176.568 252.01 176.076L251.521 187.141C261.357 187.565 270.988 190.054 279.772 194.443C288.557 198.831 296.294 205.018 302.468 212.591C308.642 220.164 313.111 228.95 315.576 238.363C318.042 247.775 318.448 257.599 316.768 267.179C315.088 276.758 311.359 285.875 305.831 293.92C300.304 301.965 293.103 308.754 284.71 313.836C276.316 318.917 266.923 322.173 257.155 323.388C247.388 324.602 237.47 323.747 228.063 320.879L224.755 331.463Z" fill="#F8A183"/>
<path d="M150.856 476.555C101.32 451.985 61.1482 414.089 35.7306 367.951C10.3131 321.812 0.865229 269.638 8.65444 218.427C16.4436 167.215 41.0974 119.417 79.3084 81.4424C117.52 43.4682 167.46 17.1348 222.431 5.97464L269.428 201.259C257.826 203.614 247.286 209.172 239.221 217.187C231.157 225.201 225.953 235.289 224.309 246.098C222.665 256.906 224.659 267.918 230.024 277.655C235.388 287.393 243.867 295.391 254.322 300.577L150.856 476.555Z" fill="#191923"/>
<circle cx="376.5" cy="156.5" r="17" fill="white" stroke="black"/>
<ellipse cx="186" cy="61.5" rx="23" ry="22.5" fill="white"/>
<circle cx="141.5" cy="202.5" r="26.5" fill="white"/>
<circle cx="59" cy="277" r="20" fill="white"/>
<circle cx="136" cy="399" r="25" fill="white"/>
<line x1="184.25" y1="59.3609" x2="248.25" y2="264.361" stroke="white" stroke-width="11"/>
<line x1="184.25" y1="59.3609" x2="248.25" y2="264.361" stroke="white" stroke-width="11"/>
<line x1="143.513" y1="205.108" x2="252.513" y2="261.108" stroke="white" stroke-width="11"/>
<line x1="58.5592" y1="276.518" x2="257.559" y2="260.518" stroke="white" stroke-width="11"/>
<line x1="136.54" y1="404.781" x2="245.54" y2="253.781" stroke="white" stroke-width="11"/>
<line x1="375.379" y1="159.34" x2="253.379" y2="254.34" stroke="white" stroke-width="11"/>
<circle cx="252" cy="257" r="35" fill="#FFDA57" stroke="white" stroke-width="10"/>
</svg>